<svg id="Layer_1" data-name="Layer 1" xmlns="http://www.w3.org/2000/svg" viewBox="0 0 206.6152 146.5561"><defs><style>.cls-1{fill:#98002e;}.cls-2{fill:#fff;}</style></defs><title>SMU Simplified CMYK Stacked</title><path class="cls-1" d="M22.99,138.0117c-.0019-4.081.0264-4.84-.041-5.6943-.0664-.95-.3105-1.2-1.2012-1.458a5.3753,5.3753,0,0,0-1.0761-.0879c-.3135.001-.4727-.0957-.4727-.291,0-.1875.1885-.25.5977-.25,1.4844-.002,3.3554.06,4.1758.0586.6933,0,2.5644-.0645,3.581-.0645.4131,0,.5967.0625.5967.25,0,.1953-.1543.291-.4375.291a4.17,4.17,0,0,0-.8223.0879c-.7324.13-.9492.51-1.0156,1.461-.0566.8535-.0566,1.6123-.0547,5.6933l.0039,3.7686c.0029,3.9306.7637,5.4463,2.127,6.52a5.3715,5.3715,0,0,0,3.5136,1.0761,5.2878,5.2878,0,0,0,3.7266-1.4277c1.5459-1.4629,1.61-3.8057,1.6084-6.5449l-.0029-3.4c-.003-4.08-.0323-4.84-.07-5.6943-.0606-.9141-.2735-1.2-1.169-1.458a5.0613,5.0613,0,0,0-1.0127-.0879c-.3086,0-.4726-.0957-.4726-.2911,0-.1875.1914-.25.5673-.25,1.4249-.0019,3.294.0606,3.3252.0606.3184-.002,2.1817-.0645,3.26-.0654.377,0,.5762.0615.5762.249,0,.1953-.1621.291-.4863.293a4.0506,4.0506,0,0,0-.8184.0878c-.7578.129-.9424.51-1.0147,1.46-.0293.8535-.0576,1.6123-.0537,5.6934l.002,2.8877c.0019,3.0019-.3047,6.1738-2.6524,8.1025a8.6969,8.6969,0,0,1-5.8818,1.9287c-1.4541.002-4.3428-.0508-6.3691-1.8281-1.4229-1.2334-2.5293-3.2246-2.5323-7.1172Z" transform="translate(-2.6553 -4.3599)"/><path class="cls-1" d="M46.1875,146.8867c.0713,2.0928.4219,2.7305.96,2.917a4.9693,4.9693,0,0,0,1.458.1826c.3125,0,.4687.1289.4687.2754,0,.2324-.2471.3008-.63.3008-1.8047.002-3.1045-.0938-3.6064-.0928-.2539,0-1.584.0967-3.0088.0987-.376,0-.63-.0332-.63-.2989,0-.1465.1875-.2773.4375-.2773a6.0493,6.0493,0,0,0,1.2676-.127c.7285-.1914.82-.917.8477-3.2558l.2421-15.9512c0-.5391.1934-.918.4776-.918.3506-.0009.73.4043,1.2021.88.3535.3486,4.5264,4.6221,8.5879,8.5752,1.8985,1.8574,5.5957,5.6563,6.0235,6.0352h.1142l-.293-11.9551c-.0312-1.65-.2822-2.127-.9482-2.3828a4.9454,4.9454,0,0,0-1.459-.15c-.3428,0-.4424-.1318-.4424-.291,0-.2129.2832-.2471.6963-.2471,1.459-.001,2.9414.0576,3.5391.0576.3242-.0019,1.374-.0615,2.73-.0625.376,0,.6338.0332.6338.2461,0,.1592-.1621.291-.4707.291a2.97,2.97,0,0,0-.8555.0938c-.7617.2226-.9863.6914-1.0147,2.2148L62.2188,150.01c0,.5957-.23.8515-.4483.8515a1.64,1.64,0,0,1-1.1357-.5625c-1.7461-1.6093-5.2334-4.9316-8.1455-7.7519-3.0372-2.9112-5.9932-6.166-6.5284-6.6387h-.0918Z" transform="translate(-2.6553 -4.3599)"/><path class="cls-1" d="M67.2637,137.9756c-.0039-4.0811-.0039-4.84-.0352-5.6934-.06-.9131-.3535-1.2334-.9472-1.4248a3.6669,3.6669,0,0,0-1.0215-.1211c-.2793,0-.4414-.07-.4414-.3193,0-.1592.2246-.2217.67-.2217,1.0469-.001,2.9394.0606,3.7363.0586.6914,0,2.4961-.0644,3.5684-.0644.35-.001.5781.0625.5781.22,0,.251-.165.3213-.4531.3213a4.0315,4.0315,0,0,0-.8135.0888c-.7627.13-.9873.5088-1.0527,1.459-.0538.8555-.0538,1.6143-.05,5.6944l.0039,4.75c.0019,2.6005.0039,4.749.125,5.8867.1035.7324.289,1.1416,1.1064,1.2695a12.1708,12.1708,0,0,0,1.4287.0879c.3164-.001.4424.166.4424.2793.001.2-.2178.2969-.5332.2969-1.8389,0-3.7393-.0938-4.4893-.0928-.6425,0-2.5351.0986-3.6474.0986-.3467,0-.541-.0947-.542-.2949,0-.1133.1-.2812.4453-.2812a4.5111,4.5111,0,0,0,.9844-.09c.5634-.1289.7246-.5146.82-1.3027.124-1.1055.123-3.253.1211-5.8535Z" transform="translate(-2.6553 -4.3599)"/><path class="cls-1" d="M76.7539,132.8164c-.6348-1.4961-1.0439-1.7422-2.0488-1.9961a5.3136,5.3136,0,0,0-1.084-.09c-.25,0-.3164-.1328-.3164-.291,0-.2168.2793-.2481.6894-.2481,1.4913-.001,3.0743.0566,4.0625.0566.6914-.0019,2.15-.0615,3.543-.0625.3389-.0009.6553.0586.6563.2461,0,.1963-.1856.2911-.4395.2911a2.1259,2.1259,0,0,0-1.0684.1816.5911.5911,0,0,0-.2929.5488,7.6818,7.6818,0,0,0,.6387,2.02l4.6953,12.0546h.0947c1.1943-2.7851,4.7676-11.455,5.43-13.2314a3.7767,3.7767,0,0,0,.2568-.9873c0-.2793-.1328-.375-.3867-.4707a4.3427,4.3427,0,0,0-1.1055-.1211c-.25,0-.4785-.0947-.4785-.291,0-.1875.2578-.2471.7949-.2471,1.3965-.001,2.6309.0576,2.9766.0557.4785,0,1.7676-.06,2.626-.0606.3457,0,.5713.0586.5713.2471,0,.1953-.1553.29-.4414.29a2.1929,2.1929,0,0,0-1.3594.3155c-.3535.2568-.7334.667-1.4571,2.38-1.1093,2.5274-1.8378,3.9864-3.35,7.2774-1.7714,3.9238-3.0664,6.8672-3.6992,8.2344-.6972,1.5478-.9472,1.956-1.331,1.957-.376,0-.5967-.3418-1.1368-1.6055Z" transform="translate(-2.6553 -4.3599)"/><path class="cls-1" d="M98.6367,137.9512c-.0039-4.08-.0039-4.84-.0273-5.6944-.0625-.9131-.3028-1.2-1.1309-1.458a4.9367,4.9367,0,0,0-1.0508-.0879c-.2656,0-.4414-.0937-.4414-.29,0-.1885.2061-.251.5889-.251,1.37-.001,3.0381.0606,3.7861.0606.8291-.002,6.6338.0273,7.1387-.0059a10.6744,10.6744,0,0,0,1.0977-.1562,3.4577,3.4577,0,0,1,.4189-.13c.1475,0,.1807.13.1807.2588a12.3061,12.3061,0,0,0-.209,1.7343c-.0293.2871-.086,1.4629-.1524,1.7754-.0293.125-.0859.4424-.2949.4424-.1758,0-.207-.1338-.207-.3467a2.7278,2.7278,0,0,0-.18-.9863c-.208-.4668-.418-.8516-1.7256-.9746-.4453-.0664-3.5683-.1231-4.1025-.1231-.1133,0-.1807.0967-.1807.252l.0049,6.6514c0,.1513.0264.2763.1816.2763.5957,0,3.9883-.0039,4.585-.0625.6182-.0664,1.0107-.1328,1.2412-.4179.209-.1817.2949-.3418.42-.3418.1133,0,.2129.122.2129.2861.001.1553-.07.5967-.2119,1.96-.0615.539-.123,1.6152-.123,1.8066,0,.2168-.0254.5957-.254.5957-.1875,0-.247-.0957-.247-.2207-.0254-.28-.0254-.6309-.086-.9795-.1543-.5381-.48-.95-1.4668-1.0449-.4746-.0674-3.4472-.12-4.1025-.12-.1221,0-.1475.123-.1475.2773l.002,2.1572c0,.9141-.0332,3.1944.0029,3.9913.0684,1.8339.8643,2.24,3.5459,2.2382a6.8482,6.8482,0,0,0,2.4629-.3379c.6514-.3271.9531-.8984,1.1367-2.0019.0508-.2832.1133-.4121.295-.4141.205,0,.24.3457.24.6309a19.5779,19.5779,0,0,1-.3565,2.9785c-.1757.69-.4189.69-1.4052.6914-1.96.002-3.5332-.0273-4.8145-.0859-1.2851-.0323-2.2656-.06-3.0312-.06-.31.001-.8692.03-1.4922.03-.625.0332-1.2813.0683-1.8154.0683-.3311,0-.501-.0947-.501-.2949,0-.1133.0879-.2793.416-.2812a4.058,4.058,0,0,0,.916-.0879c.5391-.1309.6856-.6387.7774-1.43.1132-1.1338.1113-3.26.1093-5.7285Z" transform="translate(-2.6553 -4.3599)"/><path class="cls-1" d="M116.6191,140.0332c0,.2822.0674.3711.2471.4707a7.6006,7.6006,0,0,0,2.126.249,2.8235,2.8235,0,0,0,1.9668-.4414,4.5611,4.5611,0,0,0,1.7939-3.9922c-.0029-3.7978-2.5966-4.7724-4.2392-4.77a10.53,10.53,0,0,0-1.6543.0928.3374.3374,0,0,0-.2461.38Zm-3.5478-2.0937c-.0029-4.08-.0039-4.84-.03-5.6944-.0586-.9131-.3262-1.2-1.209-1.457a5.2744,5.2744,0,0,0-1.1054-.0869c-.2793,0-.4786-.0957-.4786-.292,0-.1885.2286-.25.6368-.251,1.455-.001,3.23.0605,3.7968.0605.9512-.0019,3.4854-.0654,4.335-.0664a9.7234,9.7234,0,0,1,5.28,1.1348,4.6786,4.6786,0,0,1,1.9687,3.6992c.002,1.9961-1.1308,3.77-3.8476,5.959,2.4668,3.0332,4.4316,5.4658,6.1113,7.1436a5.2409,5.2409,0,0,0,2.9746,1.7724,2.8228,2.8228,0,0,0,.666.0586.3234.3234,0,0,1,.3467.2793c.001.2285-.1982.2969-.53.2969l-2.666.0019a6.04,6.04,0,0,1-3.043-.539c-1.2011-.6-2.248-1.8662-3.8007-3.957-1.1055-1.45-2.2823-3.25-2.6211-3.6661a.6769.6769,0,0,0-.5088-.1875l-2.5039-.0644a.201.201,0,0,0-.2217.2246v.3789c.0019,2.498.0371,4.5937.168,5.7285.0839.791.2187,1.2988,1.0752,1.4258a11.8256,11.8256,0,0,0,1.3642.0879.3369.3369,0,0,1,.3535.28c0,.2-.2285.2959-.582.2959-1.6133.0019-3.9258-.0928-4.332-.0918-.5381,0-2.3125.0976-3.418.0976-.35,0-.5449-.0947-.5449-.2949,0-.1133.0957-.2793.4521-.2793a4.76,4.76,0,0,0,.9776-.09c.5664-.129.7207-.6387.8183-1.43.125-1.1348.124-3.26.1221-5.7285Z" transform="translate(-2.6553 -4.3599)"/><path class="cls-1" d="M129.9014,150.1543c-.4082-.1914-.4932-.32-.4951-.916,0-1.4942.1054-3.1094.1279-3.5488.0332-.4043.1064-.7032.3115-.7032.2363,0,.2627.24.2627.4571a6.6814,6.6814,0,0,0,.2324,1.3837,3.6,3.6,0,0,0,3.7158,2.7305,3.2091,3.2091,0,0,0,3.4815-3.0928c-.002-1.3232-.3916-2.5918-2.5449-4.32l-1.1944-.9756c-2.8633-2.3261-3.8515-4.2216-3.8535-6.4189-.0019-2.9707,2.3867-5.1133,5.9961-5.1172a11.7934,11.7934,0,0,1,3.45.4629c.249.0557.374.1367.374.32,0,.3526-.11,1.1465-.1084,3.252,0,.5976-.0771.8066-.2822.8066-.1777,0-.2559-.1543-.2559-.4892a3.4283,3.4283,0,0,0-.68-1.7862,3.2755,3.2755,0,0,0-2.8331-1.3242,2.7773,2.7773,0,0,0-3.0878,2.7988c.0009,1.24.5947,2.1914,2.7587,3.8907l.7227.57c3.125,2.51,4.26,4.3281,4.2617,6.8984a5.5177,5.5177,0,0,1-2.4258,4.709,7.3,7.3,0,0,1-4.14,1.12,8.6658,8.6658,0,0,1-3.7949-.708" transform="translate(-2.6553 -4.3599)"/><path class="cls-1" d="M144.67,137.9141c-.0039-4.08-.0049-4.84-.041-5.6934-.06-.9141-.3555-1.2334-.9531-1.4258a3.6661,3.6661,0,0,0-1.0156-.1211c-.2832.002-.4346-.0683-.4346-.3193,0-.1582.22-.2207.6553-.2217,1.0488-.001,2.9453.0615,3.7392.0606.6944-.001,2.4961-.0655,3.5752-.0664.3457,0,.5742.0625.5742.2207.002.2509-.1621.32-.4492.32a4.26,4.26,0,0,0-.8242.09c-.7588.1289-.9756.51-1.0381,1.4609-.0654.8536-.0635,1.6114-.0615,5.6934l.0039,4.751c.0019,2.5986.0039,4.7471.1338,5.8857.1006.7324.2959,1.1407,1.1064,1.2686a11.8288,11.8288,0,0,0,1.4278.0869c.31,0,.4433.166.4433.28.001.1992-.2168.2959-.541.2959-1.8379.0019-3.7353-.0928-4.49-.0918-.6367,0-2.5332.0976-3.6387.0976-.3574.002-.5332-.0947-.5332-.2949,0-.1133.083-.2793.4336-.2793a4.5923,4.5923,0,0,0,.9785-.09c.5684-.1289.7324-.5157.8242-1.3028.1319-1.1074.1309-3.2539.128-5.8545Z" transform="translate(-2.6553 -4.3599)"/><path class="cls-1" d="M158.8516,131.7715l-3.9766.09c-1.5508.0352-2.1846.2276-2.5791.8321a2.9921,2.9921,0,0,0-.4561.914c-.06.2207-.1308.3487-.3085.3487-.1758.0009-.2354-.1563-.2354-.4366-.001-.4492.5049-3.0429.5713-3.2715.0625-.3437.1465-.5009.2949-.5019.2207,0,.4863.2207,1.1611.3125a22.2106,22.2106,0,0,0,2.6729.1269l10.8437-.0078a11.0806,11.0806,0,0,0,1.83-.1308c.42-.0557.6426-.1231.7266-.1231.1806,0,.209.16.209.5684.0009.5664-.0567,2.5625-.0547,3.2627-.0293.2842-.0879.4424-.2344.4424-.2226,0-.2793-.125-.3115-.5391l-.0235-.2861c-.0693-.6924-.7744-1.52-3.1679-1.5479l-3.374-.0566.0087,10.8838c.003,2.4677.0372,4.5927.1553,5.7627.0928.7568.2412,1.2636,1.0293,1.3925a11.3,11.3,0,0,0,1.37.0879c.31,0,.4268.166.4278.2793,0,.1992-.2051.2959-.5088.2959-1.7676.002-3.5615-.0927-4.32-.0927-.6075.0019-2.4268.0976-3.4912.1-.335,0-.5206-.0957-.5206-.2959,0-.1143.0879-.28.42-.28a4.1759,4.1759,0,0,0,.95-.0889c.538-.13.6923-.6377.788-1.4287.1163-1.1357.1143-3.2617.1124-5.7285Z" transform="translate(-2.6553 -4.3599)"/><path class="cls-1" d="M179.0967,143.459a5.3466,5.3466,0,0,0-.6358-2.8125c-.1914-.4082-3.997-6.3242-4.9707-7.7569a6.2384,6.2384,0,0,0-1.8144-1.8916,2.682,2.682,0,0,0-1.1621-.3418c-.2227,0-.4141-.0986-.4141-.2939,0-.1875.1914-.2471.541-.2471.4746,0,2.5635.0567,3.4746.0567.6114-.001,1.9043-.0606,3.1661-.0625.2519,0,.414.06.414.247,0,.2237-.1933.2247-.6426.3545a.4377.4377,0,0,0-.3711.4121,2.0565,2.0565,0,0,0,.3526.9161c.501.8261,4.1513,7.1171,4.6279,7.8828.3447-.6436,3.7246-6.4014,4.1328-7.2256a3.3746,3.3746,0,0,0,.4121-1.419c0-.2568-.1172-.5156-.5976-.6074-.2539-.0664-.5117-.0947-.5117-.3193,0-.1875.1621-.2471.4785-.2471.9218-.0019,1.9.0576,2.7187.0567.6-.001,2.4385-.0606,2.9766-.0625.3125,0,.5078.0595.5078.2187,0,.1875-.22.3242-.5371.3242a3.2018,3.2018,0,0,0-1.2022.3145,3.6417,3.6417,0,0,0-1.4531,1.2636,89.5348,89.5348,0,0,0-5.4111,8.6114,6.341,6.341,0,0,0-.3438,2.6894l.002,2.15c0,.4512,0,1.5586.0683,2.6934.0567.791.3106,1.3027,1.1387,1.4267a12.1531,12.1531,0,0,0,1.3965.087c.3164,0,.4668.1669.4668.2812,0,.1992-.209.2959-.5957.2959-1.7383.001-3.6094-.0928-4.3731-.0928-.6953,0-2.5585.0977-3.6074.0987-.38.0009-.5976-.0674-.5976-.2959-.001-.1133.1328-.2793.4414-.2793a4.8617,4.8617,0,0,0,.98-.09c.5713-.125.7881-.6367.8536-1.4277.0937-1.1367.0927-2.2442.0927-2.6934Z" transform="translate(-2.6553 -4.3599)"/><path class="cls-1" d="M3.2734,121.627c-.52-.2344-.6181-.3926-.6181-1.1114,0-1.8008.1318-3.7617.1621-4.2842.0293-.497.1328-.85.3974-.85.2911,0,.32.2929.32.5586a6.923,6.923,0,0,0,.3017,1.666,4.4965,4.4965,0,0,0,4.6709,3.2968c2.9414,0,4.3867-1.9941,4.3867-3.7246,0-1.6025-.5019-3.1054-3.205-5.23l-1.51-1.1739c-3.5957-2.81-4.8359-5.1054-4.8359-7.7539,0-3.5957,3.0019-6.1806,7.5537-6.1806a15.886,15.886,0,0,1,4.3388.5537c.3028.0654.4649.166.4649.3965,0,.4238-.1328,1.375-.1328,3.9228,0,.7217-.1.9834-.3614.9834-.2285,0-.3232-.1953-.3232-.5928a3.9459,3.9459,0,0,0-.8477-2.1552,4.1561,4.1561,0,0,0-3.5576-1.6016c-2.4238,0-3.9043,1.4072-3.9043,3.3662,0,1.5068.7578,2.6494,3.4688,4.708l.914.6895c3.9629,2.9746,5.3633,5.2285,5.3633,8.3359a6.6229,6.6229,0,0,1-3.0644,5.6924,9.5219,9.5219,0,0,1-5.2012,1.3369,11.3881,11.3881,0,0,1-4.7813-.8476" transform="translate(-2.6553 -4.3599)"/><path class="cls-1" d="M28.2568,113.5508c.13,0,.1651-.0664.1289-.1621l-2.7207-7.0664c-.0254-.0918-.0625-.2539-.1328-.2539-.0986,0-.1279.1621-.1611.2539L22.6,113.3594c-.0674.1289,0,.1953.1.1953Zm-6.15,1.5449c-.1611,0-.1943.0293-.2529.1953L20.3086,119.02a5.1125,5.1125,0,0,0-.4219,1.7012c0,.49.2617.7813,1.1494.7793h.42c.3535,0,.4228.1367.4238.2949,0,.2285-.1611.291-.4561.291-.9424,0-2.2842-.0937-3.205-.0937-.2872,0-1.834.0976-3.3321.1-.3584,0-.5234-.0625-.5234-.291a.29.29,0,0,1,.33-.2949c.2617,0,.5791-.0372.8437-.0372,1.3115-.1894,1.7969-1.0449,2.3926-2.4482l7.5-17.501c.33-.7851.5625-1.1093.8535-1.1093.42,0,.5488.2607.8516.88.6894,1.5342,5.5019,12.9151,7.332,17.128,1.1172,2.5156,1.9355,2.872,2.4629,2.9668a6.7589,6.7589,0,0,0,1.0683.1025c.2647,0,.3975.0986.3985.2939,0,.2286-.17.2911-1.2383.293-1.0166,0-3.1084.002-5.5312-.0586-.5166-.0322-.8516-.0322-.8516-.2285,0-.1582.0615-.26.3574-.2949a.435.435,0,0,0,.2676-.6192l-2.2324-5.5878a.2681.2681,0,0,0-.291-.1954Z" transform="translate(-2.6553 -4.3599)"/><path class="cls-1" d="M39.0742,109.0928c-.0039-4.2217-.0039-4.9951-.0371-5.8819-.0683-.9531-.3623-1.2783-.9883-1.4765a3.849,3.849,0,0,0-1.0429-.125c-.295,0-.4571-.0664-.4571-.3262,0-.1641.2325-.2256.69-.2256,1.0752-.001,3.0381.06,3.8555.06.7187-.002,2.59-.0654,3.6933-.0664.3584,0,.5869.0625.5869.2246,0,.26-.1621.3281-.4521.3281a4.1974,4.1974,0,0,0-.8516.0957c-.7881.1348-1.0117.5274-1.0781,1.5078-.0645.8867-.0645,1.6612-.0606,5.8828l.0039,4.9063c.002,2.6807.004,4.9082.1368,6.084.1.7519.2949,1.1777,1.1465,1.2988a9.9442,9.9442,0,0,0,1.4726.1025c.3213-.0009.4531.1573.4531.294,0,.1953-.2275.2949-.5586.2949-1.8867.002-3.8574-.0957-4.6416-.0947-.6513,0-2.6142.1006-3.7568.1025-.36,0-.5527-.1-.5527-.2949,0-.1367.0918-.2949.457-.2949a4.0668,4.0668,0,0,0,1.0127-.1035c.585-.1231.7471-.5176.8428-1.3389.1347-1.1377.1328-3.3662.1308-6.0479Z" transform="translate(-2.6553 -4.3599)"/><path class="cls-1" d="M52.0645,118.2754c.0683,2.1572.4218,2.8066.9785,3.0049a5,5,0,0,0,1.5039.1943c.3281-.001.4931.1348.4931.294.001.2275-.2607.2939-.6591.2959-1.8594,0-3.1973-.0977-3.7168-.0967-.2618,0-1.6455.1006-3.1114.1006-.3867.0019-.6523-.0274-.6523-.293,0-.1582.1953-.2949.457-.2959a5.6039,5.6039,0,0,0,1.3067-.1367c.747-.1885.8457-.9444.8808-3.3643l.2461-16.4775c-.001-.5537.1934-.9463.4961-.9483.36,0,.74.4278,1.2266.917.373.3565,4.6963,4.7627,8.8808,8.8467,1.9571,1.9287,5.793,5.8555,6.21,6.2422h.1338l-.3047-12.36c-.0313-1.6953-.2969-2.1962-.9746-2.4482a4.9054,4.9054,0,0,0-1.51-.1621c-.3613,0-.4609-.1279-.4609-.29,0-.2393.2978-.2618.7178-.2618,1.51-.0019,3.0537.06,3.6689.06.3242,0,1.4063-.0635,2.8145-.0654.3857,0,.6484.0215.6484.2607,0,.1631-.1563.291-.4863.291a2.9861,2.9861,0,0,0-.8887.0967c-.7832.2295-1.0117.7236-1.041,2.293l-.31,17.5254c.001.6172-.2344.8828-.456.8838a1.7433,1.7433,0,0,1-1.1827-.5938c-1.8027-1.6621-5.3994-5.0918-8.4072-8.0039-3.1484-3.002-6.1855-6.3662-6.7461-6.8525h-.0957Z" transform="translate(-2.6553 -4.3599)"/><path class="cls-1" d="M80.2588,102.7207l-4.2725.1035c-1.6718.0313-2.35.2266-2.7763.8457a3.1859,3.1859,0,0,0-.4932.9541c-.0654.2246-.1318.3545-.3311.3545-.1962,0-.2646-.1592-.2656-.457,0-.4492.5654-3.1348.624-3.3672.0664-.3613.1612-.52.3272-.5205.2314,0,.5234.2285,1.2412.3271.8516.0909,1.9336.128,2.877.127l11.68-.0088a12.698,12.698,0,0,0,1.9512-.13c.4649-.0752.6934-.1377.7881-.1377.2021,0,.2324.1651.2334.5889,0,.5859-.0605,2.6562-.0605,3.3672-.0372.2949-.1026.46-.2647.46-.2285,0-.2871-.1318-.3291-.5556l-.0283-.2949c-.0713-.7208-.8233-1.5645-3.4053-1.5987l-3.6269-.0605.0078,11.2451c.0019,2.5527.0332,4.748.167,5.9551.1.7851.2627,1.3066,1.1142,1.4287a10.1314,10.1314,0,0,0,1.4727.1025c.3242,0,.457.1563.457.294,0,.1943-.2314.2939-.56.2939-1.89.002-3.8232-.0957-4.6416-.0947-.6474.001-2.6142.1006-3.7558.1025-.3653,0-.5567-.1-.5567-.2939,0-.1377.1-.2959.46-.2959a3.774,3.774,0,0,0,1.0088-.1035c.5859-.1231.7519-.6455.8457-1.4668.125-1.1719.123-3.3672.1211-5.918Z" transform="translate(-2.6553 -4.3599)"/><path class="cls-1" d="M104.8809,97.4336c.0957-.5566.2929-.8467.5586-.8477.2617,0,.4531.1661.8847,1.0137l8.9278,18.4346,8.8847-18.6787c.2715-.5264.4258-.7832.7285-.7832.2871-.002.4864.3261.5821,1.0117l3,20.207c.289,2.0557.6132,3.0039,1.6015,3.2988a6.65,6.65,0,0,0,2.0264.3223c.2939,0,.5225.0332.5225.2285,0,.2617-.3887.3614-.8457.3614-.8262,0-5.334-.0948-6.6456-.1895-.7451-.07-.95-.1641-.95-.3594,0-.167.1357-.26.3671-.3594.1914-.0683.295-.49.1612-1.4062l-1.9737-14.3848h-.1338L115.4688,120.15c-.7569,1.5332-.9219,1.8359-1.2129,1.8359-.2979,0-.6192-.6621-1.15-1.6386-.7832-1.4981-3.3721-6.5-3.7637-7.4141-.2949-.6924-2.2578-4.8008-3.4082-7.2607h-.125l-1.6992,13.02a12.3417,12.3417,0,0,0-.0908,1.5332c.0009.622.4238.916.9765,1.0459a6.7746,6.7746,0,0,0,1.3779.1611c.2579,0,.49.0654.49.2266,0,.2949-.3018.3613-.7842.3632-1.37,0-2.8467-.0976-3.4365-.0976-.6231.001-2.1914.1015-3.2383.1015-.3232,0-.5781-.0654-.5781-.3593,0-.1621.1875-.2285.5117-.2285a4.2307,4.2307,0,0,0,.9883-.1045c.9121-.1885,1.1728-1.4668,1.334-2.5752Z" transform="translate(-2.6553 -4.3599)"/><path class="cls-1" d="M142.8887,113.459c.1328,0,.1631-.0664.1328-.1621l-2.7236-7.0645c-.0293-.0928-.0674-.2558-.1221-.2558-.1065,0-.1358.163-.17.2558l-2.77,7.0362c-.0664.1279,0,.1953.0948.1953Zm-6.1446,1.5449c-.16,0-.1933.0293-.2617.1963l-1.5371,3.7275a5.2391,5.2391,0,0,0-.4219,1.7012c0,.49.2618.7813,1.1495.7813h.42c.36,0,.4238.1347.4238.2939,0,.2275-.1611.29-.457.29-.95.002-2.2871-.0927-3.2041-.0918-.2871,0-1.834.0957-3.3321.0977-.3593,0-.52-.0625-.5214-.29a.2883.2883,0,0,1,.3291-.2959c.2607,0,.5771-.0371.8466-.0371,1.3145-.1895,1.793-1.043,2.3887-2.4473l7.5068-17.501c.3233-.7851.5518-1.1084.8389-1.1084.4356-.0019.5606.26.8594.8789.6894,1.5352,5.501,12.916,7.331,17.1279,1.1192,2.5147,1.9405,2.8721,2.4639,2.9668a6.9457,6.9457,0,0,0,1.0684.1026c.2685,0,.3984.1.3984.2939,0,.2285-.1621.291-1.2422.292-1.0127.001-3.1055.002-5.5293-.0586-.5146-.0312-.8535-.0312-.8535-.2275,0-.1582.0664-.2608.3682-.294a.4379.4379,0,0,0,.2568-.6191l-2.2285-5.5889a.27.27,0,0,0-.2949-.1963Z" transform="translate(-2.6553 -4.3599)"/><path class="cls-1" d="M158.3574,111.1592c0,.2939.0625.3955.2539.4931a8.1829,8.1829,0,0,0,2.1953.2539,2.9488,2.9488,0,0,0,2.0332-.455,4.7379,4.7379,0,0,0,1.8575-4.1231c-.0039-3.9267-2.6934-4.9336-4.3877-4.9316a10.8215,10.8215,0,0,0-1.7061.0967c-.19.0634-.2519.165-.2519.3935Zm-3.67-2.1572c-.0039-4.2227-.0059-4.9961-.0342-5.8829-.0674-.955-.3252-1.2451-1.2392-1.5058a5.5985,5.5985,0,0,0-1.1495-.0947c-.29,0-.4931-.0987-.4951-.294,0-.1963.2305-.2578.6582-.2578,1.51-.002,3.34.0586,3.919.0576.9853,0,3.6084-.0635,4.4814-.0654a10.0758,10.0758,0,0,1,5.4629,1.17,4.8531,4.8531,0,0,1,2.0361,3.8262c.002,2.0547-1.1748,3.8906-3.9873,6.15,2.5518,3.1367,4.5723,5.6543,6.3106,7.3789a5.4042,5.4042,0,0,0,3.082,1.832,2.806,2.806,0,0,0,.6914.0625.3313.3313,0,0,1,.3535.2949c.002.2276-.1992.294-.5585.2949l-2.7364.002a6.2464,6.2464,0,0,1-3.1426-.5527c-1.2529-.6192-2.3261-1.93-3.9257-4.086-1.1543-1.5019-2.3594-3.3642-2.7188-3.7881a.6638.6638,0,0,0-.5224-.2l-2.5821-.0585a.205.205,0,0,0-.2314.2285v.3906c.0019,2.582.0322,4.7461.166,5.918.0928.8213.2324,1.3437,1.1142,1.4658a9.9284,9.9284,0,0,0,1.4073.1006.3236.3236,0,0,1,.3535.2959c0,.1943-.2207.2939-.5859.2949-1.668.001-4.0547-.0967-4.4815-.0967-.55.002-2.38.1016-3.5322.1026-.3574.0009-.5488-.0987-.5488-.294,0-.1367.0957-.2949.4482-.2949a4.0106,4.0106,0,0,0,1.0244-.1045c.582-.1221.75-.6455.8457-1.4658.1231-1.1719.1231-3.3662.1192-5.919Z" transform="translate(-2.6553 -4.3599)"/><path class="cls-1" d="M178.92,114.7383a5.5655,5.5655,0,0,0-.65-2.9092c-.1992-.4229-4.123-6.5342-5.1406-8.0107a6.4638,6.4638,0,0,0-1.8594-1.958,2.9142,2.9142,0,0,0-1.2226-.3565c-.2246,0-.4268-.1-.4268-.291,0-.1992.2012-.2617.56-.2617.4932,0,2.65.0605,3.6016.0595.6269,0,1.96-.0634,3.2675-.0654.2617,0,.4258.0625.4258.2617,0,.2246-.1933.2246-.6562.3575a.4435.4435,0,0,0-.3848.4277,2.172,2.172,0,0,0,.3545.9433c.5244.8457,4.29,7.3555,4.78,8.1387.3574-.65,3.8554-6.6055,4.2783-7.4619a3.6442,3.6442,0,0,0,.4258-1.4687c-.001-.2618-.1338-.5264-.6192-.62-.2607-.0644-.52-.0976-.52-.3222,0-.1992.1621-.2617.48-.2617.9541,0,1.9678.0605,2.8145.0605.6181,0,2.5263-.0645,3.0752-.0645.3281,0,.5185.0606.5185.2227,0,.1992-.2226.3291-.5517.3291a3.42,3.42,0,0,0-1.24.3252,3.8492,3.8492,0,0,0-1.5058,1.3125,94.4411,94.4411,0,0,0-5.585,8.8955,6.529,6.529,0,0,0-.3584,2.7822l.002,2.2149c0,.4658.0019,1.6133.0664,2.7851.0693.8223.3281,1.3438,1.1836,1.4659a10.0559,10.0559,0,0,0,1.4345.1c.3311,0,.4932.1592.4932.295.0019.1953-.2266.2959-.6172.2959-1.8047.0009-3.7314-.0967-4.5156-.0967-.7227.0019-2.6524.1025-3.7285.1025-.3887.001-.6172-.0664-.6192-.2939,0-.1367.1338-.2949.4512-.2949a4.219,4.219,0,0,0,1.0215-.1036c.582-.123.8144-.6455.8769-1.4668.0957-1.1718.0938-2.32.0938-2.7851Z" transform="translate(-2.6553 -4.3599)"/><path class="cls-1" d="M194.8984,92.541c-.332-.3193-.3574-.4219-.3574-.584,0-.0976.19-.2578.3565-.2578a13.1736,13.1736,0,0,1,2.7158.6113c.8164.2286.95.4678.95.95.001,2.001-2.1211,5.4932-3.5967,7.001a.674.674,0,0,1-.5176.2617.192.192,0,0,1-.208-.1914,1.3191,1.3191,0,0,1,.169-.4336,11.77,11.77,0,0,0,1.2714-5.0957,3.5316,3.5316,0,0,0-.7832-2.2617" transform="translate(-2.6553 -4.3599)"/><path class="cls-1" d="M196.9141,121.59c-.4571-.1953-.55-.33-.55-.95-.002-1.499.122-3.2334.1474-3.6865,0-.4277.1367-.7226.3613-.7226.2579,0,.2989.2539.2989.457a5.2216,5.2216,0,0,0,.2627,1.4355c.623,2.0625,2.7793,2.7461,4.5791,2.7442,2.4843-.001,3.9883-1.5723,3.9863-3.5391,0-1.2031-.2959-2.4121-2.8535-3.916l-1.6651-.9785c-3.4013-1.99-4.5107-3.8574-4.5126-6.3135-.004-3.3926,3.2656-5.5869,7.2509-5.5908a16.7929,16.7929,0,0,1,4.085.4551c.2695.0615.4.1621.4.3613,0,.3525-.1045,1.1367-.1035,3.3291.0009.5928-.127.8838-.3555.8838-.1914,0-.291-.166-.291-.4824a3.18,3.18,0,0,0-.7578-1.8418A3.8872,3.8872,0,0,0,204,101.9336c-2.0635.0019-3.9258,1.082-3.9238,2.9824,0,1.2383.459,2.2217,3.041,3.6563l1.1758.6543c3.7949,2.0859,4.9756,4.2129,4.9775,6.7324a5.9412,5.9412,0,0,1-2.876,5.1992,8.3609,8.3609,0,0,1-4.8086,1.1465,12.1577,12.1577,0,0,1-4.6718-.7149" transform="translate(-2.6553 -4.3599)"/><path class="cls-2" d="M93.1846,4.9365l10.1582.0508s1.5234.1753,1.7617,1.1724c0,0,.9375-1.35,2.1133-1.2334l9.8613.0522.95,13.2656-25.5962.1939Z" transform="translate(-2.6553 -4.3599)"/><path class="cls-1" d="M139.8027,18.7891l-21.0644.0175-1.085-14.292-.0088-.1547-10.2832.0078a2.4811,2.4811,0,0,0-2.0771.94,2.4932,2.4932,0,0,0-2.08-.936l-10.2793.0093L91.8477,18.8271l-21.1206.0166s-7.752,56.3331,34.59,69.2549C148.1182,74.6416,139.8027,18.7891,139.8027,18.7891ZM104.72,17.99H93.2314l.7627-12.4575,9.211-.0073a1.3128,1.3128,0,0,1,1.459,1.2031l.0488,6.6489Zm1.1436-4.6128.041-6.6367a1.3269,1.3269,0,0,1,1.4609-1.2178l9.209-.0087.8145,12.4941c-.9092.0029-7.0791.021-11.5078.021Z" transform="translate(-2.6553 -4.3599)"/><path class="cls-2" d="M136.9111,40.4053c-3.6631-.8687-11.8-.2212-18.7548,3.5859a29.52,29.52,0,0,1-12.917,3.771A29.493,29.493,0,0,1,92.314,44.0107C85.35,40.2139,77.2114,39.58,73.5493,40.4546c0,0,1.376,34.0063,31.68,45.0327,0,.0215.0762.0215.0762,0C135.5908,74.4131,136.9111,40.4053,136.9111,40.4053Z" transform="translate(-2.6553 -4.3599)"/><path class="cls-1" d="M116.0059,74.1855c-3.3907-.2753-2.4444,2.8331-2.4444,2.8331-5.789-.8506-7.4443,2.6386-7.8261,3.7714l.0019,1.292h-.8418l-.0019-1.4775c-.4991-1.2959-2.2764-4.3858-7.7647-3.57,0,0,.94-3.1133-2.4473-2.834,0,0,2.0245-1.92-1.0888-3.7744,0,0,2.73-.667.872-3.2871a3.3311,3.3311,0,0,0,2.48-2.3438,1.6205,1.6205,0,0,0,2.5186.0694,2.32,2.32,0,0,0,1.61,2.4462S98.4521,67.6611,99.7109,70a1.5819,1.5819,0,0,0,.9112,2.9043s-1.3643,1.8555,1.4013,3.2119a7.5517,7.5517,0,0,1,2.87,2.126l-.002-3.4141a3.8221,3.8221,0,1,1,.8389.02l.0019,3.498a7.1629,7.1629,0,0,1,2.9346-2.2344c2.7627-1.3623,1.3945-3.2138,1.3945-3.2138a1.5826,1.5826,0,0,0,.9112-2.9063c1.2539-2.3408-1.3692-2.6894-1.3692-2.6894a2.3222,2.3222,0,0,0,1.6074-2.4463,1.6174,1.6174,0,0,0,2.5166-.0752,3.32,3.32,0,0,0,2.4873,2.3388c-1.8544,2.625.877,3.2891.877,3.2891C113.9766,72.2656,116.0059,74.1855,116.0059,74.1855Z" transform="translate(-2.6553 -4.3599)"/><path class="cls-1" d="M127.084,59.5254s.293,1.2705-.6641.6865c-.9619-.5849-4.1328-2.2471-6.2285-2.09h0c-2.0928-.1548-5.2617,1.5117-6.2187,2.1006-.959.5849-.667-.6866-.667-.6866,1.0332-6.5156-2.6084-9.1557-2.6084-9.1557a4.2876,4.2876,0,0,1,3.56,1.1694s.1973-.9756.7842-1.1113c0,0-.3506,3.7173,1.8047,2.7734,2.15-.9394-.1426-4.0869-.6309-4.4028a3.8865,3.8865,0,0,1,2.7364.49s.7451-2.2143,1.2334-2.2705v-.0019h0v.0019c.4892.0562,1.2343,2.2661,1.2343,2.2661a3.8923,3.8923,0,0,1,2.7413-.4883c-.4922.3121-2.7774,3.4659-.628,4.4009,2.1563.9395,1.8008-2.7817,1.8008-2.7817.5859.14.7842,1.1157.7842,1.1157a4.2814,4.2814,0,0,1,3.5615-1.1763S126.0391,53.01,127.084,59.5254Z" transform="translate(-2.6553 -4.3599)"/><path class="cls-1" d="M97.9668,59.5469s.29,1.2734-.666.6885c-.959-.587-4.13-2.2491-6.2256-2.09h0c-2.0918-.1523-5.2622,1.5117-6.2192,2.0986-.96.587-.6651-.6865-.6651-.6865,1.0322-6.5156-2.6089-9.1557-2.6089-9.1557a4.2815,4.2815,0,0,1,3.5611,1.1718s.1948-.98.7817-1.1157c0,0-.35,3.7192,1.8027,2.78,2.1529-.9419-.1416-4.0894-.6318-4.4028a3.8921,3.8921,0,0,1,2.7412.4878s.7432-2.2124,1.2329-2.27V47.05h0v.0024c.4888.0577,1.2334,2.2657,1.2334,2.2657a3.9014,3.9014,0,0,1,2.74-.4922c-.49.3159-2.7788,3.47-.6241,4.4028,2.1534.9414,1.7979-2.7778,1.7979-2.7778.5879.1357.78,1.1137.78,1.1137a4.28,4.28,0,0,1,3.5625-1.1738S96.9209,53.0332,97.9668,59.5469Z" transform="translate(-2.6553 -4.3599)"/><path class="cls-2" d="M116.2764,31.104a.797.797,0,0,0-.2334-.769.825.825,0,0,0-.7373-.2427l-.9815-.9829L114.32,27.72a.8236.8236,0,0,0,.3477-.6943.8023.8023,0,0,0-.3819-.7095,2.8631,2.8631,0,0,0-2.5576-2.4282.846.846,0,0,0-1.4424-.0156l-1.209,0-1.0166-1.0146a.8561.8561,0,0,0-1.0146-.9678,2.8878,2.8878,0,0,0-1.708-.5635,2.8512,2.8512,0,0,0-1.8184.6568.8158.8158,0,0,0-.8037.2226.8054.8054,0,0,0-.2256.7867l-.8857.8867-1.2578.0019a.8062.8062,0,0,0-.7149-.395.797.797,0,0,0-.7275.4151,2.88,2.88,0,0,0-2.4912,2.3989.8412.8412,0,0,0-.0361,1.4619v1.35l-.9092.9121a.812.812,0,0,0-.7842.2275.7925.7925,0,0,0-.2188.8077,2.8789,2.8789,0,0,0-.0693,3.4565.7972.7972,0,0,0,.2129.8359.8121.8121,0,0,0,.7969.2246l.9785.98.0019,1.3833a.8021.8021,0,0,0-.4043.7241.7915.7915,0,0,0,.4434.7383,2.8776,2.8776,0,0,0,2.501,2.4058.8071.8071,0,0,0,.7217.4062.8155.8155,0,0,0,.7119-.3891l1.3027-.002.9443.9483a.844.844,0,0,0,1.0616,1.0058,2.8636,2.8636,0,0,0,3.4687-.0708.8476.8476,0,0,0,1.0293-1l.8867-.8882h1.2539a.8454.8454,0,0,0,1.4317-.0171,2.8619,2.8619,0,0,0,2.5605-2.4423.8116.8116,0,0,0,.38-.7115.8242.8242,0,0,0-.3476-.6928l-.003-1.4229.8633-.8677a.6523.6523,0,0,0,.1895.0274.8439.8439,0,0,0,.5879-.2578.8016.8016,0,0,0,.2236-.792A2.8625,2.8625,0,0,0,116.2764,31.104Zm-3.211-1.4712.0049,6.3794-4.541,4.55-6.3486.0063-4.5381-4.5356-.0049-6.3989,4.4873-4.4961,6.4316-.0044Z" transform="translate(-2.6553 -4.3599)"/><rect class="cls-1" x="93.9443" y="4.1899" width="5.2544" height="1.9397"/><rect class="cls-1" x="106.5293" y="4.1806" width="5.2583" height="1.9404"/><rect class="cls-1" x="93.9482" y="8.5126" width="5.2534" height="1.9441"/><rect class="cls-1" x="106.5346" y="8.5056" width="5.2564" height="1.9429"/><path class="cls-1" d="M103.3408,66.3838a4.8876,4.8876,0,0,1,4.1455-.0039c.1592-.2559,2.5674-5.4951,2.5674-5.4951a8.248,8.248,0,0,0-4.6748-1.1143,7.9354,7.9354,0,0,0-4.6172,1.1231Z" transform="translate(-2.6553 -4.3599)"/></svg>