<svg id="Layer_1" data-name="Layer 1" xmlns="http://www.w3.org/2000/svg" xmlns:xlink="http://www.w3.org/1999/xlink" viewBox="0 0 267.6826 60.8507"><defs><style>.cls-1{fill:none;}.cls-2{fill:#98002e;}.cls-3{clip-path:url(#clip-path);}.cls-4{fill:#fff;}</style><clipPath id="clip-path" transform="translate(-2.3041 -1.5981)"><rect class="cls-1" x="2.3041" y="1.5981" width="51.0746" height="60.8507"/></clipPath></defs><title>SMU_Simplified_CMYK_</title><path class="cls-2" d="M60.9852,33.7091c-.4961-.2168-.5893-.3721-.5893-1.0537,0-1.7056.124-3.5659.1548-4.062.0312-.4653.124-.8062.372-.8062.2793,0,.3106.2793.3106.5274a6.5594,6.5594,0,0,0,.2788,1.581,4.2731,4.2731,0,0,0,4.4341,3.1319c2.79,0,4.1543-1.8916,4.1543-3.5352,0-1.519-.4649-2.9453-3.0381-4.9609l-1.4268-1.1162c-3.41-2.6661-4.5888-4.8369-4.5888-7.3482,0-3.4106,2.8525-5.86,7.1626-5.86a14.9956,14.9956,0,0,1,4.1235.5268c.2793.062.4346.1548.4346.3721,0,.4028-.1241,1.3022-.1241,3.7207,0,.6821-.0932.93-.3413.93-.2173,0-.31-.1861-.31-.5581a3.7562,3.7562,0,0,0-.8062-2.0464,3.9274,3.9274,0,0,0-3.3794-1.52c-2.2949,0-3.69,1.3335-3.69,3.1939,0,1.4263.7134,2.5112,3.2866,4.4648l.8682.6509c3.7519,2.8218,5.0849,4.9609,5.0849,7.9067a6.2487,6.2487,0,0,1-2.9145,5.3951,8.9611,8.9611,0,0,1-4.93,1.2715A10.7362,10.7362,0,0,1,60.9852,33.7091Z" transform="translate(-2.3041 -1.5981)"/><path class="cls-2" d="M80.7631,27.4464c-.1548,0-.1861.0308-.2481.1856l-1.4575,3.5351a4.777,4.777,0,0,0-.4028,1.6123c0,.4649.248.7442,1.0854.7442h.4028c.3414,0,.4029.124.4029.2788,0,.2173-.1548.2788-.4336.2788-.8994,0-2.1709-.0928-3.0391-.0928-.2788,0-1.7363.0928-3.1621.0928-.3413,0-.4961-.0615-.4961-.2788a.27.27,0,0,1,.31-.2788c.248,0,.5586-.0313.8066-.0313,1.24-.186,1.7051-.9922,2.2632-2.3252l7.1314-16.5884c.31-.7441.5273-1.0542.8061-1.0542.4028,0,.5269.2481.8062.837.6513,1.4575,5.209,12.2475,6.9453,16.247,1.0542,2.3877,1.8291,2.7285,2.3252,2.8218a6.5837,6.5837,0,0,0,1.0234.0933q.3721,0,.3721.2788c0,.2173-.1553.2788-1.1782.2788-.9615,0-2.9458,0-5.24-.0615-.4961-.0313-.8066-.0313-.8066-.2173,0-.1548.0625-.2481.3413-.2788a.4141.4141,0,0,0,.248-.5894L87.46,27.632a.2587.2587,0,0,0-.2788-.1856Zm5.8291-1.4575c.124,0,.1548-.062.124-.1548l-2.5737-6.6973c-.0308-.0932-.0616-.248-.1241-.248-.0927,0-.124.1548-.1547.248l-2.6353,6.6661c-.0625.124,0,.186.0928.186Z" transform="translate(-2.3041 -1.5981)"/><path class="cls-2" d="M98.6493,21.7721c0-3.9995,0-4.7437-.0313-5.5811-.0615-.8989-.3408-1.2094-.93-1.395a3.4809,3.4809,0,0,0-.9922-.124c-.2793,0-.4346-.0625-.4346-.3105,0-.1548.2173-.2168.6514-.2168,1.0234,0,2.8838.062,3.6587.062.6821,0,2.45-.062,3.5034-.062.3413,0,.5586.062.5586.2168,0,.248-.1553.3105-.4346.3105a3.7821,3.7821,0,0,0-.8057.0928c-.7441.124-.9614.4961-1.0234,1.4262-.062.8374-.062,1.5816-.062,5.5811V26.423c0,2.5425,0,4.6509.124,5.7671.0933.7133.2788,1.1162,1.0855,1.24a10.2029,10.2029,0,0,0,1.395.0933c.31,0,.4341.1547.4341.2788,0,.186-.2168.2788-.5274.2788-1.7978,0-3.6582-.0928-4.4023-.0928-.62,0-2.48.0928-3.5659.0928-.3414,0-.5269-.0928-.5269-.2788,0-.1241.0928-.2788.4336-.2788a4.015,4.015,0,0,0,.9614-.0933c.5581-.124.7134-.4961.8062-1.271.124-1.0854.124-3.1938.124-5.7363Z" transform="translate(-2.3041 -1.5981)"/><path class="cls-2" d="M112.4442,30.4845c.0625,2.0469.4033,2.667.9307,2.8525a4.6217,4.6217,0,0,0,1.4258.1866c.31,0,.4653.124.4653.2788,0,.2173-.2481.2788-.62.2788-1.7671,0-3.0386-.0928-3.5347-.0928-.248,0-1.55.0928-2.9453.0928-.3721,0-.62-.0308-.62-.2788,0-.1548.1855-.2788.4336-.2788a5.6257,5.6257,0,0,0,1.24-.1241c.7134-.1865.8066-.8994.8374-3.1938l.2481-15.627c0-.5268.186-.8989.4653-.8989.3408,0,.7129.4028,1.1777.8682.3413.3408,4.4341,4.5263,8.4029,8.4023,1.86,1.8291,5.4877,5.55,5.8911,5.9219h.124l-.2793-11.72c-.0308-1.6123-.2788-2.0777-.93-2.3257a4.5861,4.5861,0,0,0-1.4267-.1548c-.3409,0-.4336-.124-.4336-.2793,0-.2168.2788-.248.6816-.248,1.4268,0,2.8838.062,3.4727.062.3105,0,1.3335-.062,2.6669-.062.3721,0,.62.0312.62.248,0,.1553-.1553.2793-.4654.2793a2.7769,2.7769,0,0,0-.8374.0928c-.7441.2168-.9609.6821-.9922,2.17l-.3095,16.6191c0,.5894-.2173.8374-.4346.8374a1.622,1.622,0,0,1-1.1162-.5586c-1.7051-1.581-5.1157-4.8369-7.9683-7.5962-2.9765-2.8525-5.86-6.0463-6.3872-6.5112h-.0928Z" transform="translate(-2.3041 -1.5981)"/><path class="cls-2" d="M139.91,15.757l-4.0615.0927c-1.581.0313-2.2324.2173-2.6357.8067a3.0858,3.0858,0,0,0-.4649.8989c-.062.2173-.124.3413-.31.3413s-.2481-.1553-.2481-.4346c0-.4336.5269-2.9765.5894-3.1933.0615-.3408.1548-.4961.3095-.4961.2178,0,.4961.2168,1.1788.31a25.5166,25.5166,0,0,0,2.7285.1241h11.0688a12.0714,12.0714,0,0,0,1.8614-.1241c.4335-.062.65-.124.7441-.124.1855,0,.2168.1548.2168.5581,0,.5581-.0625,2.5117-.0625,3.1934-.0313.2793-.0928.4346-.2481.4346-.2168,0-.2793-.1241-.31-.5274l-.0313-.2793c-.0615-.6816-.7754-1.4883-3.2246-1.519l-3.4414-.062V26.423c0,2.4184.03,4.4961.1553,5.643.0928.7442.248,1.24,1.0537,1.3643a10.2071,10.2071,0,0,0,1.3955.0933c.31,0,.4336.1547.4336.2788,0,.186-.2168.2788-.5274.2788-1.7978,0-3.6269-.0928-4.4023-.0928-.62,0-2.481.0928-3.5659.0928-.3408,0-.5274-.0928-.5274-.2788,0-.1241.0928-.2788.4346-.2788a3.8419,3.8419,0,0,0,.961-.0933c.5576-.124.7128-.62.8056-1.395.124-1.1162.124-3.1939.124-5.6123Z" transform="translate(-2.3041 -1.5981)"/><path class="cls-2" d="M165.9193,10.7648c.0928-.5269.2783-.8057.5264-.8057s.4346.1548.8379.9609l8.4648,17.4874,8.4336-17.7041c.2481-.4961.4024-.7442.6817-.7442s.4648.31.5585.9609l2.8213,19.1617c.2784,1.9536.5889,2.8525,1.5186,3.1313a6.2,6.2,0,0,0,1.9228.3106c.2793,0,.4961.0307.4961.2168,0,.248-.372.3408-.8056.3408-.7754,0-5.0547-.0928-6.295-.1856-.7128-.0625-.8984-.1552-.8984-.3413,0-.1548.1231-.248.3408-.3413.1856-.0615.2784-.4648.1553-1.333l-1.8613-13.6426h-.1231l-6.76,14.0767c-.7129,1.4575-.8682,1.7363-1.1475,1.7363s-.5889-.62-1.085-1.55c-.7441-1.4262-3.1933-6.17-3.5654-7.0381-.2793-.6513-2.14-4.5581-3.2246-6.8837h-.124l-1.6123,12.3408a12.15,12.15,0,0,0-.0928,1.457c0,.5889.4023.8682.93.9922a6.0011,6.0011,0,0,0,1.3027.1553c.2481,0,.4649.0615.4649.2168,0,.2793-.2793.3408-.7442.3408-1.3027,0-2.6972-.0928-3.2558-.0928-.5889,0-2.0772.0928-3.0694.0928-.31,0-.5586-.0615-.5586-.3408,0-.1553.1866-.2168.4961-.2168a3.9759,3.9759,0,0,0,.9307-.0933c.8682-.186,1.1162-1.395,1.2715-2.45Z" transform="translate(-2.3041 -1.5981)"/><path class="cls-2" d="M197.4457,27.4464c-.1553,0-.1865.0308-.2481.1856l-1.458,3.5351a4.7928,4.7928,0,0,0-.4033,1.6123c0,.4649.2481.7442,1.0859.7442h.4024c.3418,0,.4033.124.4033.2788,0,.2173-.1553.2788-.4336.2788-.8994,0-2.1709-.0928-3.039-.0928-.2784,0-1.7364.0928-3.1622.0928-.3408,0-.496-.0615-.496-.2788a.27.27,0,0,1,.3095-.2788c.2481,0,.5586-.0313.8067-.0313,1.24-.186,1.705-.9922,2.2636-2.3252l7.1309-16.5884c.31-.7441.5273-1.0542.8066-1.0542.4024,0,.5264.2481.8057.837.6514,1.4575,5.209,12.2475,6.9453,16.247,1.0537,2.3877,1.8291,2.7285,2.3252,2.8218a6.5784,6.5784,0,0,0,1.0234.0933q.3721,0,.3721.2788c0,.2173-.1553.2788-1.1787.2788-.9609,0-2.9453,0-5.2393-.0615-.496-.0313-.8066-.0313-.8066-.2173,0-.1548.0625-.2481.3408-.2788a.4134.4134,0,0,0,.2481-.5894l-2.1075-5.3022a.2594.2594,0,0,0-.2792-.1856Zm5.8281-1.4575c.125,0,.1553-.062.125-.1548l-2.5742-6.6973c-.0313-.0932-.0615-.248-.124-.248-.0928,0-.1241.1548-.1553.248l-2.6348,6.6661c-.0625.124,0,.186.0928.186Z" transform="translate(-2.3041 -1.5981)"/><path class="cls-2" d="M215.3324,21.7721c0-3.9995,0-4.7437-.0312-5.5811-.0616-.8989-.31-1.1782-1.1778-1.4262a5.0349,5.0349,0,0,0-1.0859-.0928c-.2783,0-.4649-.0933-.4649-.2793s.2168-.248.62-.248c1.4267,0,3.163.062,3.7207.062.9306,0,3.4111-.062,4.248-.062a9.5539,9.5539,0,0,1,5.1777,1.1162,4.6051,4.6051,0,0,1,1.9229,3.6279c0,1.9531-1.1162,3.6895-3.7832,5.8291,2.4189,2.9766,4.3408,5.3638,5.9844,7.0068a5.1155,5.1155,0,0,0,2.914,1.7364,2.5331,2.5331,0,0,0,.6514.0625.3154.3154,0,0,1,.3408.2788c0,.2173-.1855.2788-.5264.2788h-2.6044a5.9122,5.9122,0,0,1-2.9766-.5269c-1.1787-.5893-2.2012-1.83-3.7207-3.8755-1.086-1.4267-2.2324-3.1938-2.5742-3.5966a.6264.6264,0,0,0-.4961-.1866l-2.4492-.0615a.1954.1954,0,0,0-.2168.2168v.3721c0,2.4492.0312,4.4961.1552,5.6123.0928.7749.2168,1.271,1.0537,1.395a10.3542,10.3542,0,0,0,1.334.0933.3161.3161,0,0,1,.3408.2788c0,.186-.2177.2788-.5585.2788-1.5811,0-3.8448-.0928-4.2471-.0928-.5274,0-2.2637.0928-3.35.0928-.3408,0-.5264-.0928-.5264-.2788,0-.1241.0928-.2788.4336-.2788a4.02,4.02,0,0,0,.9619-.0933c.5576-.124.7129-.62.8057-1.395.124-1.1162.124-3.1939.124-5.6123Zm3.4727,2.0464c0,.2793.0625.3721.248.4648a7.4639,7.4639,0,0,0,2.0772.2481,2.7449,2.7449,0,0,0,1.9228-.4336,4.4592,4.4592,0,0,0,1.7676-3.9072c0-3.7207-2.543-4.6817-4.1553-4.6817a9.9434,9.9434,0,0,0-1.6123.0928c-.1855.0625-.248.1553-.248.3721Z" transform="translate(-2.3041 -1.5981)"/><path class="cls-2" d="M238.3969,27.2291a5.2552,5.2552,0,0,0-.62-2.7592c-.1855-.4034-3.9062-6.2012-4.8681-7.5967a6.0314,6.0314,0,0,0-1.7666-1.86,2.7093,2.7093,0,0,0-1.1475-.3408c-.2168,0-.4033-.0933-.4033-.2793s.1865-.248.5273-.248c.4649,0,2.5118.062,3.4112.062.5888,0,1.8593-.062,3.1-.062.248,0,.4033.062.4033.248,0,.2168-.1855.2168-.62.3408-.2168.0625-.3721.1865-.3721.4033a2.0547,2.0547,0,0,0,.3408.9c.4961.8056,4.0625,6.976,4.5274,7.72.3408-.62,3.6582-6.2632,4.0615-7.0694a3.4721,3.4721,0,0,0,.4033-1.395c0-.248-.124-.4961-.5888-.5893-.2481-.062-.4961-.0933-.4961-.31,0-.186.1552-.248.4648-.248.8994,0,1.86.062,2.667.062.5889,0,2.3867-.062,2.9141-.062.3105,0,.496.062.496.2168,0,.1865-.2167.3105-.5273.3105a3.328,3.328,0,0,0-1.1777.31,3.65,3.65,0,0,0-1.4268,1.24,88.4405,88.4405,0,0,0-5.3017,8.4336,6.1294,6.1294,0,0,0-.3409,2.6357V29.4c0,.4341,0,1.52.0616,2.6358.0625.7749.31,1.271,1.1162,1.395a10.4435,10.4435,0,0,0,1.3642.0933c.3106,0,.4649.1547.4649.2788,0,.186-.2168.2788-.5889.2788-1.7051,0-3.5342-.0928-4.2783-.0928-.6826,0-2.5117.0928-3.5352.0928-.372,0-.5888-.0615-.5888-.2788,0-.1241.124-.2788.4345-.2788a4.2018,4.2018,0,0,0,.961-.0933c.5576-.124.7754-.62.8369-1.395.0928-1.1162.0928-2.2017.0928-2.6358Z" transform="translate(-2.3041 -1.5981)"/><path class="cls-2" d="M252.5629,9.37c-.31-.31-.3408-.4029-.3408-.5582,0-.0927.1865-.248.3408-.248a12.4214,12.4214,0,0,1,2.5742.5889c.7744.2173.8984.4345.8984.8994,0,1.8916-2.0156,5.209-3.41,6.6352a.6419.6419,0,0,1-.4961.2481.1787.1787,0,0,1-.1865-.1861,1.1028,1.1028,0,0,1,.1552-.4033,11.1469,11.1469,0,0,0,1.209-4.8369A3.33,3.33,0,0,0,252.5629,9.37Z" transform="translate(-2.3041 -1.5981)"/><path class="cls-2" d="M258.267,33.74c-.4346-.1861-.5274-.31-.5274-.9,0-1.4257.1241-3.0693.1553-3.5034,0-.4028.124-.6821.3408-.6821.2481,0,.2793.248.2793.4341a4.8994,4.8994,0,0,0,.2481,1.3642c.5888,1.9537,2.6357,2.6045,4.3408,2.6045,2.3564,0,3.7832-1.4883,3.7832-3.3486,0-1.147-.2793-2.2944-2.6983-3.7207l-1.581-.93c-3.2246-1.8916-4.2793-3.6587-4.2793-5.9844,0-3.2246,3.1016-5.3017,6.8838-5.3017a16.1782,16.1782,0,0,1,3.876.4341c.248.062.372.1548.372.3413,0,.3408-.0927,1.0849-.0927,3.1621,0,.5586-.125.8374-.3418.8374-.1856,0-.2793-.1548-.2793-.4653a2.9735,2.9735,0,0,0-.7129-1.7364,3.6644,3.6644,0,0,0-3.0381-1.24c-1.9541,0-3.7207,1.0234-3.7207,2.8218,0,1.1782.4336,2.1084,2.8838,3.4726l1.1152.62c3.5977,1.9844,4.7129,4,4.7129,6.3873a5.632,5.632,0,0,1-2.7285,4.93,7.9465,7.9465,0,0,1-4.5576,1.0855A11.5949,11.5949,0,0,1,258.267,33.74Z" transform="translate(-2.3041 -1.5981)"/><path class="cls-2" d="M60.8309,47.8156c0-2.7081.021-3.212-.021-3.7793-.042-.63-.21-.7979-.7978-.9659a3.3291,3.3291,0,0,0-.7139-.0625q-.3149,0-.3149-.1894c0-.126.126-.168.3989-.168.9868,0,2.2256.042,2.7715.042.4619,0,1.7007-.042,2.3725-.042.273,0,.399.042.399.168s-.105.1894-.294.1894a2.5632,2.5632,0,0,0-.5459.0625c-.4829.084-.63.336-.6718.9659-.042.5673-.042,1.0712-.042,3.7793v2.499c0,2.6035.5039,3.6113,1.4067,4.3252a3.559,3.559,0,0,0,2.3306.7138,3.5194,3.5194,0,0,0,2.4775-.9453c1.0288-.9658,1.0708-2.5195,1.0708-4.3457v-2.247c0-2.7081-.021-3.212-.042-3.7793-.042-.6084-.1889-.7979-.7768-.9659a3.1812,3.1812,0,0,0-.6719-.0625q-.315,0-.315-.1894c0-.126.126-.168.378-.168.9448,0,2.1836.042,2.2046.042.21,0,1.4487-.042,2.1626-.042.2519,0,.3779.042.3779.168s-.105.1894-.3149.1894a2.5618,2.5618,0,0,0-.5459.0625c-.504.084-.63.336-.6719.9659-.021.5673-.042,1.0712-.042,3.7793v1.9111c0,1.9941-.21,4.0937-1.7637,5.375a5.758,5.758,0,0,1-3.9053,1.28,6.3853,6.3853,0,0,1-4.22-1.2178c-.9448-.8184-1.68-2.1416-1.68-4.7236Z" transform="translate(-2.3041 -1.5981)"/><path class="cls-2" d="M78.3236,53.7159c.042,1.3858.273,1.8057.63,1.9317a3.1505,3.1505,0,0,0,.9658.126c.21,0,.315.0839.315.1884,0,.1475-.168.1895-.42.1895-1.1967,0-2.0576-.0635-2.3935-.0635-.168,0-1.05.0635-1.9946.0635-.252,0-.42-.0215-.42-.1895,0-.1045.126-.1884.294-.1884a3.83,3.83,0,0,0,.84-.084c.4829-.126.5459-.6094.5669-2.1631l.168-10.582c0-.3565.126-.6084.3149-.6084.231,0,.4829.2724.7979.5879.2309.23,3.0024,3.0654,5.69,5.6894,1.26,1.2393,3.7163,3.7588,3.9893,4.0107h.084l-.189-7.9365c-.021-1.0918-.189-1.4072-.63-1.5752a3.1122,3.1122,0,0,0-.9658-.1045c-.231,0-.294-.0839-.294-.1894,0-.1465.189-.168.462-.168.9658,0,1.9526.042,2.3515.042.21,0,.9029-.042,1.8057-.042.2519,0,.42.0215.42.168,0,.1055-.105.1894-.3149.1894a1.8879,1.8879,0,0,0-.5669.0625c-.5039.1475-.6509.462-.6719,1.47l-.21,11.2539c0,.3994-.1469.5674-.2939.5674a1.1,1.1,0,0,1-.7559-.378c-1.1548-1.0713-3.4643-3.2754-5.396-5.1445-2.0156-1.9316-3.9682-4.0938-4.3252-4.4092h-.0629Z" transform="translate(-2.3041 -1.5981)"/><path class="cls-2" d="M94.83,47.8156c0-2.7081,0-3.212-.021-3.7793-.042-.6084-.231-.8184-.63-.9444a2.3411,2.3411,0,0,0-.6719-.084c-.1889,0-.2939-.042-.2939-.21,0-.1055.1469-.1475.4409-.1475.6929,0,1.9526.042,2.4775.042.4619,0,1.6587-.042,2.3726-.042.2309,0,.3779.042.3779.1475,0,.1679-.105.21-.2939.21a2.5618,2.5618,0,0,0-.5459.0625c-.5039.084-.6509.336-.6929.9659-.042.5673-.042,1.0712-.042,3.7793V50.965c0,1.7216,0,3.1494.084,3.9052.063.4834.189.7559.7349.84a6.9063,6.9063,0,0,0,.9448.0635c.21,0,.2939.1045.2939.1884,0,.126-.1469.1895-.3569.1895-1.2178,0-2.4775-.0635-2.9815-.0635-.42,0-1.68.0635-2.4145.0635-.231,0-.3569-.0635-.3569-.1895,0-.0839.063-.1884.2939-.1884A2.7155,2.7155,0,0,0,94.2,55.71c.3779-.084.4829-.336.5459-.86.084-.7353.084-2.1631.084-3.8847Z" transform="translate(-2.3041 -1.5981)"/><path class="cls-2" d="M101.6337,44.3937c-.42-.9873-.6929-1.1553-1.3648-1.3233a3.2852,3.2852,0,0,0-.7138-.0625c-.168,0-.21-.0839-.21-.1894,0-.1465.189-.168.4619-.168.9868,0,2.0366.042,2.6875.042.4619,0,1.4277-.042,2.3516-.042.2309,0,.4409.042.4409.168s-.126.1894-.294.1894a1.3551,1.3551,0,0,0-.7138.126.3882.3882,0,0,0-.189.3565,5.14,5.14,0,0,0,.42,1.3437l3.1075,8h.0629c.7979-1.8476,3.1705-7.6006,3.6114-8.7764a2.4769,2.4769,0,0,0,.1679-.6513c0-.1885-.0839-.252-.2519-.3145a2.7972,2.7972,0,0,0-.7349-.084c-.1679,0-.3149-.0634-.3149-.1894s.168-.168.5249-.168c.9238,0,1.7427.042,1.9736.042.315,0,1.1758-.042,1.7427-.042.231,0,.3779.042.3779.168s-.105.1894-.2939.1894a1.4644,1.4644,0,0,0-.9029.21c-.2309.168-.4829.44-.9658,1.5742-.7348,1.68-1.2177,2.6455-2.2256,4.8291-1.1757,2.6035-2.0366,4.5567-2.4565,5.459-.4619,1.0293-.63,1.3018-.8818,1.3018s-.399-.23-.7559-1.07Z" transform="translate(-2.3041 -1.5981)"/><path class="cls-2" d="M116.7533,47.8156c0-2.7081,0-3.212-.021-3.7793-.042-.6084-.21-.7979-.7978-.9659a3.41,3.41,0,0,0-.7349-.0625c-.189,0-.315-.0634-.315-.1894s.147-.168.42-.168c.9658,0,2.1416.042,2.6665.042.5879,0,4.6821.0215,5.039,0,.336-.0205.63-.084.7769-.1045a2.0881,2.0881,0,0,1,.2939-.084c.105,0,.126.084.126.168a7.9049,7.9049,0,0,0-.147,1.1543c-.021.1895-.0629.9658-.1049,1.1758-.021.084-.063.2939-.21.2939-.126,0-.147-.084-.147-.23a1.6793,1.6793,0,0,0-.1259-.6514c-.147-.3145-.294-.5664-1.2178-.65-.315-.042-2.52-.084-2.8975-.084-.084,0-.126.0625-.126.168V48.257c0,.1045.021.1884.126.1884.42,0,2.8135,0,3.2334-.042.4409-.0419.7139-.0839.8819-.2724.1469-.126.21-.2315.2939-.2315s.147.084.147.1895-.042.3984-.147,1.3018c-.042.3564-.084,1.07-.084,1.1962,0,.1475-.021.3995-.189.3995-.1259,0-.1679-.0635-.1679-.1475-.021-.1885-.021-.42-.063-.65-.105-.3574-.3359-.63-1.0288-.6934-.336-.0419-2.4356-.0839-2.8975-.0839-.084,0-.105.0839-.105.1894v1.4277c0,.6084-.021,2.12,0,2.6456.042,1.2177.6089,1.49,2.4986,1.49a4.9864,4.9864,0,0,0,1.7427-.23c.4619-.21.6718-.5879.7978-1.3232.042-.1885.084-.2725.21-.2725.1469,0,.1679.23.1679.42a12.0878,12.0878,0,0,1-.2519,1.9737c-.126.4619-.294.4619-.9868.4619-1.3858,0-2.4986-.0215-3.4014-.0635-.9028-.0205-1.5957-.042-2.1416-.042-.21,0-.6089.0215-1.05.0215-.4409.0205-.9028.042-1.2808.042-.2309,0-.3569-.0635-.3569-.1895,0-.0839.063-.1884.2939-.1884a2.7155,2.7155,0,0,0,.6509-.0635c.3779-.084.4829-.42.5459-.9443.084-.7559.084-2.1631.084-3.8008Z" transform="translate(-2.3041 -1.5981)"/><path class="cls-2" d="M128.43,47.8156c0-2.7081,0-3.212-.021-3.7793-.042-.6084-.21-.7979-.7979-.9659a3.4088,3.4088,0,0,0-.7348-.0625c-.189,0-.315-.0634-.315-.1894s.147-.168.42-.168c.9659,0,2.1416.042,2.52.042.63,0,2.3095-.042,2.8764-.042a6.4712,6.4712,0,0,1,3.5059.7559,3.1185,3.1185,0,0,1,1.3027,2.457c0,1.3223-.7558,2.4981-2.5625,3.9473,1.6387,2.0156,2.94,3.6318,4.0528,4.7451a3.4736,3.4736,0,0,0,1.9736,1.1758,1.7253,1.7253,0,0,0,.4409.042.2142.2142,0,0,1,.2315.1884c0,.1475-.126.1895-.3565.1895h-1.7641a4.0021,4.0021,0,0,1-2.0157-.3574,8.341,8.341,0,0,1-2.5195-2.6241c-.7354-.9658-1.5122-2.163-1.7432-2.4355a.4234.4234,0,0,0-.3359-.126l-1.6587-.042a.1325.1325,0,0,0-.147.1465v.252c0,1.6591.021,3.0449.105,3.8008.063.5244.147.86.7139.9443a7.0074,7.0074,0,0,0,.9028.0635.214.214,0,0,1,.231.1884c0,.126-.147.1895-.378.1895-1.0708,0-2.6035-.0635-2.8764-.0635-.357,0-1.5327.0635-2.2676.0635-.231,0-.3569-.0635-.3569-.1895,0-.0839.063-.1884.2939-.1884A2.7155,2.7155,0,0,0,127.8,55.71c.3779-.084.4829-.42.5459-.9443.084-.7559.084-2.1631.084-3.8008Zm2.3515,1.3857c0,.1895.042.252.168.3154a5.0677,5.0677,0,0,0,1.4067.168,1.86,1.86,0,0,0,1.3018-.2939,3.02,3.02,0,0,0,1.1968-2.6456c0-2.5195-1.7217-3.1709-2.8135-3.1709a6.6758,6.6758,0,0,0-1.0918.0635c-.126.042-.168.1045-.168.252Z" transform="translate(-2.3041 -1.5981)"/><path class="cls-2" d="M141.5131,55.92c-.294-.1259-.3565-.21-.3565-.6084,0-.9658.084-2.0791.1045-2.373,0-.2725.084-.4619.2315-.4619.1679,0,.1884.168.1884.2939a3.3368,3.3368,0,0,0,.168.9239,2.8565,2.8565,0,0,0,2.94,1.7636,2.3166,2.3166,0,0,0,2.5615-2.2675c0-.7764-.1895-1.5538-1.8262-2.52l-1.0713-.63c-2.1836-1.28-2.8974-2.4775-2.8974-4.0517,0-2.1836,2.1-3.5908,4.6611-3.5908a10.9523,10.9523,0,0,1,2.624.2939c.168.042.252.1055.252.2315,0,.23-.0625.7343-.0625,2.1416,0,.3779-.084.5664-.23.5664-.127,0-.19-.1045-.19-.3145a2.0178,2.0178,0,0,0-.4824-1.1758,2.4845,2.4845,0,0,0-2.0586-.84c-1.3222,0-2.5195.6924-2.5195,1.91,0,.7979.2949,1.4278,1.9531,2.3516l.7559.42c2.4355,1.3438,3.1914,2.709,3.1914,4.3252a3.8149,3.8149,0,0,1-1.8477,3.3389,5.3844,5.3844,0,0,1-3.0859.7344A7.8434,7.8434,0,0,1,141.5131,55.92Z" transform="translate(-2.3041 -1.5981)"/><path class="cls-2" d="M153.4408,47.8156c0-2.7081,0-3.212-.02-3.7793-.043-.6084-.2315-.8184-.6309-.9444a2.3342,2.3342,0,0,0-.6718-.084c-.1885,0-.293-.042-.293-.21,0-.1055.1465-.1475.44-.1475.6924,0,1.9522.042,2.4776.042.4619,0,1.6582-.042,2.373-.042.2305,0,.377.042.377.1475,0,.1679-.1045.21-.293.21a2.575,2.575,0,0,0-.5469.0625c-.5039.084-.65.336-.6924.9659-.042.5673-.042,1.0712-.042,3.7793V50.965c0,1.7216,0,3.1494.084,3.9052.0625.4834.19.7559.7344.84a6.91,6.91,0,0,0,.9453.0635c.21,0,.294.1045.294.1884,0,.126-.1475.1895-.3565.1895-1.2187,0-2.4785-.0635-2.9824-.0635-.42,0-1.68.0635-2.4141.0635-.23,0-.3574-.0635-.3574-.1895,0-.0839.0635-.1884.2949-.1884a2.7138,2.7138,0,0,0,.65-.0635c.3779-.084.4824-.336.5459-.86.084-.7353.084-2.1631.084-3.8847Z" transform="translate(-2.3041 -1.5981)"/><path class="cls-2" d="M164.4437,43.7423l-2.75.0635c-1.07.0205-1.5117.1465-1.7851.5459a2.0932,2.0932,0,0,0-.3145.6084c-.042.1474-.084.2314-.21.2314s-.168-.1054-.168-.2939c0-.294.3564-2.0156.3994-2.1631.041-.23.1045-.3359.209-.3359.1475,0,.3359.1474.7988.21a17.1851,17.1851,0,0,0,1.8477.084h7.4951a8.172,8.172,0,0,0,1.26-.084c.2939-.042.44-.084.5039-.084.1259,0,.1474.1055.1474.378,0,.3779-.0429,1.7011-.0429,2.1631-.0206.1884-.0625.2939-.168.2939-.1465,0-.1885-.084-.209-.3574l-.0215-.1885c-.042-.4619-.5254-1.0078-2.1836-1.0293l-2.33-.042V50.965c0,1.6377.0206,3.0449.1045,3.8213.0635.5039.168.84.7139.9238a6.91,6.91,0,0,0,.9453.0635c.209,0,.293.1045.293.1884,0,.126-.1465.1895-.3565.1895-1.2177,0-2.456-.0635-2.9814-.0635-.42,0-1.68.0635-2.4141.0635-.2314,0-.3574-.0635-.3574-.1895,0-.0839.0625-.1884.294-.1884a2.6069,2.6069,0,0,0,.6513-.0635c.377-.084.4824-.42.5449-.9443.084-.7559.084-2.1631.084-3.8008Z" transform="translate(-2.3041 -1.5981)"/><path class="cls-2" d="M177.3793,51.5109a3.5573,3.5573,0,0,0-.42-1.8682c-.125-.2734-2.6446-4.1992-3.2959-5.1445a4.0971,4.0971,0,0,0-1.1963-1.26,1.839,1.839,0,0,0-.7774-.23c-.1465,0-.2734-.0634-.2734-.1894s.1269-.168.3574-.168c.3145,0,1.7012.042,2.31.042.3994,0,1.26-.042,2.1-.042.168,0,.2724.042.2724.168,0,.1474-.125.1474-.42.2314-.1465.042-.2519.126-.2519.2725a1.3846,1.3846,0,0,0,.2314.6094c.336.5459,2.751,4.7236,3.0654,5.2275.2305-.42,2.4776-4.2412,2.75-4.7871a2.3447,2.3447,0,0,0,.2735-.9443c0-.168-.084-.336-.3985-.4-.1679-.0419-.3359-.0625-.3359-.21,0-.126.1045-.168.3145-.168.6093,0,1.26.042,1.8056.042.3994,0,1.6162-.042,1.9737-.042.21,0,.3359.042.3359.1475,0,.126-.1465.21-.3574.21a2.2493,2.2493,0,0,0-.7969.21,2.4667,2.4667,0,0,0-.9668.84,59.9747,59.9747,0,0,0-3.59,5.711,4.1411,4.1411,0,0,0-.2305,1.7842v1.4277c0,.2939,0,1.0293.041,1.7852.043.5244.2109.86.7559.9443a7.0736,7.0736,0,0,0,.9238.0635c.2109,0,.3154.1045.3154.1884,0,.126-.1474.1895-.3994.1895-1.1543,0-2.3926-.0635-2.8965-.0635-.4629,0-1.7011.0635-2.3945.0635-.252,0-.3984-.042-.3984-.1895,0-.0839.0839-.1884.2939-.1884a2.8442,2.8442,0,0,0,.6514-.0635c.3769-.084.5244-.42.5664-.9443.0625-.7559.0625-1.4913.0625-1.7852Z" transform="translate(-2.3041 -1.5981)"/><g class="cls-3"><path class="cls-4" d="M19.0286,2.0173l7.381.0365s1.1079.1272,1.2795.8516c0,0,.6833-.981,1.536-.8955l7.1672.036.6906,9.6411-18.6.1415.546-9.8112Z" transform="translate(-2.3041 -1.5981)"/><path class="cls-2" d="M28.2427,8.15l.03-4.8221a.9639.9639,0,0,1,1.06-.8856l6.6927-.0054.5919,9.0784c-.662.002-5.1452.0153-8.3624.0155L28.2427,8.15Zm-.8316,3.3535H19.0624L19.6177,2.45l6.6937-.0054a.9544.9544,0,0,1,1.06.8741l.035,4.8315.0048,3.3532Zm25.4943.5794L37.6,12.0953,36.8086,1.7107l-.0059-.1126-7.471.0058a1.8044,1.8044,0,0,0-1.51.6827,1.8107,1.8107,0,0,0-1.5122-.68l-7.47.006-.783,10.4984L2.7086,12.123S-2.924,53.0576,27.8462,62.4488C58.948,52.6671,52.9054,12.083,52.9054,12.083Z" transform="translate(-2.3041 -1.5981)"/></g><path class="cls-4" d="M50.804,27.7894c-2.6619-.6311-8.5748-.16-13.6295,2.6049a21.4651,21.4651,0,0,1-9.3868,2.7419A21.4516,21.4516,0,0,1,18.3954,30.41C13.3346,27.6517,7.42,27.19,4.76,27.8257c0,0,.9994,24.7111,23.0206,32.7244,0,.0146.0573.0146.0573,0C49.8446,52.5017,50.804,27.7894,50.804,27.7894Z" transform="translate(-2.3041 -1.5981)"/><path class="cls-2" d="M35.6132,52.3356a1.5121,1.5121,0,0,0-1.7763,2.06c-4.2065-.6174-5.41,1.9173-5.6883,2.7426l.0008.9358-.61.0006-.0014-1.0736c-.3617-.9408-1.6541-3.1858-5.6419-2.5952a1.513,1.513,0,0,0-1.7791-2.0582s1.471-1.3967-.79-2.7432c0,0,1.9828-.4839.6318-2.3878a2.4177,2.4177,0,0,0,1.8028-1.7044,1.1768,1.1768,0,0,0,1.8305.05,1.6849,1.6849,0,0,0,1.17,1.7767s-1.9042.2564-.9894,1.9576a1.1479,1.1479,0,0,0,.662,2.1085s-.9907,1.3483,1.0193,2.3344a5.5192,5.5192,0,0,1,2.0836,1.5436l-.0022-2.48a2.7753,2.7753,0,1,1,.6113.0152l.0014,2.5424A5.18,5.18,0,0,1,30.28,53.7361c2.0078-.99,1.0135-2.336,1.0135-2.336a1.1486,1.1486,0,0,0,.6612-2.11c.9121-1.7034-.9928-1.9561-.9928-1.9561a1.6881,1.6881,0,0,0,1.1673-1.7782,1.1735,1.1735,0,0,0,1.8277-.0534,2.42,2.42,0,0,0,1.8071,1.7012c-1.3462,1.9065.6375,2.3879.6375,2.3879-2.2624,1.35-.7878,2.7444-.7878,2.7444Z" transform="translate(-2.3041 -1.5981)"/><path class="cls-2" d="M43.6632,41.684s.2132.924-.4833.4991c-.6984-.4262-3.0027-1.6345-4.5245-1.5187h0c-1.5213-.1127-3.824,1.0978-4.52,1.5252s-.4833-.4975-.4833-.4975c.749-4.736-1.8971-6.6536-1.8971-6.6536a3.1107,3.1107,0,0,1,2.5877.85s.1428-.71.57-.81c0,0-.2539,2.7026,1.31,2.0175s-.1033-2.97-.4584-3.1989a2.8255,2.8255,0,0,1,1.9911.3551s.54-1.6078.8952-1.6495v-.0012h0v.0012c.3541.0417.8967,1.6477.8967,1.6477a2.8281,2.8281,0,0,1,1.9908-.3576c-.356.2284-2.0172,2.5188-.4528,3.2,1.5647.6826,1.3052-2.02,1.3052-2.02.4274.0993.5714.8086.5714.8086a3.1146,3.1146,0,0,1,2.5883-.8542S42.904,36.949,43.6632,41.684Z" transform="translate(-2.3041 -1.5981)"/><path class="cls-2" d="M22.5025,41.7011s.2131.9234-.4832.4991c-.6968-.4262-3.0014-1.6339-4.5232-1.52h0c-1.52-.1114-3.8241,1.1-4.52,1.5271-.6978.4256-.4839-.4982-.4839-.4982.7511-4.7371-1.895-6.6541-1.895-6.6541a3.1136,3.1136,0,0,1,2.5876.8505s.1415-.7105.5674-.8105c0,0-.2537,2.7032,1.31,2.0188s-.1029-2.971-.4581-3.2a2.8237,2.8237,0,0,1,1.9914.3554s.54-1.6078.895-1.65V32.618h0v.0012c.3558.0424.8976,1.649.8976,1.649a2.8209,2.8209,0,0,1,1.99-.3582c-.3561.2284-2.018,2.5182-.4518,3.2,1.5639.6816,1.3052-2.02,1.3052-2.02.4281.099.5689.8088.5689.8088a3.1185,3.1185,0,0,1,2.5889-.8542s-2.6447,1.9223-1.887,6.657Z" transform="translate(-2.3041 -1.5981)"/><path class="cls-4" d="M33.4753,19.9629l.0037,4.6354-3.3,3.305-4.6127.0037-3.2972-3.2923-.0035-4.65L25.526,16.697,30.2,16.6934l3.2752,3.27Zm2.3335,1.0693a.578.578,0,0,0-.17-.559.599.599,0,0,0-.5354-.1758l-.7148-.7147-.001-1.01a.5971.5971,0,0,0,.2533-.5039.5852.5852,0,0,0-.2781-.5162,2.0813,2.0813,0,0,0-1.8585-1.764.6144.6144,0,0,0-1.0478-.0108l-.88.0008-.7384-.7378a.6232.6232,0,0,0-.7384-.704,2.08,2.08,0,0,0-2.5618.0679.5919.5919,0,0,0-.5826.1616.5838.5838,0,0,0-.1652.5718l-.6439.6447-.9114.0014a.5884.5884,0,0,0-.5218-.2874.58.58,0,0,0-.5283.3018,2.0927,2.0927,0,0,0-1.81,1.7433.6118.6118,0,0,0-.0264,1.0614l.0006.9822-.6611.6633a.5906.5906,0,0,0-.57.1644.5783.5783,0,0,0-.16.5868,2.0936,2.0936,0,0,0-.0492,2.5126.5791.5791,0,0,0,.1544.6076.5924.5924,0,0,0,.579.1629l.7118.7112L21.3546,26a.6126.6126,0,0,0,.0279,1.0621A2.0918,2.0918,0,0,0,23.2,28.809a.5844.5844,0,0,0,.5254.2947.5945.5945,0,0,0,.5176-.2807l.9464-.0012.6868.6868a.6137.6137,0,0,0,.77.7317,2.0813,2.0813,0,0,0,2.5218-.05.6168.6168,0,0,0,.7469-.7274l.6447-.6451.9114-.0006a.615.615,0,0,0,1.0408-.0121A2.081,2.081,0,0,0,34.3729,27.03a.5868.5868,0,0,0,.2753-.5157.5933.5933,0,0,0-.2535-.503l-.001-1.035.6267-.6289a.49.49,0,0,0,.1375.0192.6184.6184,0,0,0,.4283-.1865.5865.5865,0,0,0,.1627-.5761,2.0816,2.0816,0,0,0,.06-2.5719Z" transform="translate(-2.3041 -1.5981)"/><polygon class="cls-2" points="23.025 4.453 19.206 4.455 19.205 3.045 23.023 3.043 23.025 4.453 23.025 4.453"/><polygon class="cls-2" points="32.173 4.446 28.354 4.449 28.352 3.039 32.171 3.036 32.173 4.446 32.173 4.446"/><polygon class="cls-2" points="23.028 7.596 19.208 7.6 19.208 6.188 23.026 6.185 23.028 7.596 23.028 7.596"/><polygon class="cls-2" points="32.175 7.592 28.356 7.594 28.355 6.182 32.173 6.179 32.175 7.592 32.175 7.592"/><path class="cls-2" d="M26.4081,46.6673a3.5593,3.5593,0,0,1,3.0136-.0031c.1158-.1865,1.8657-3.9926,1.8657-3.9926a6.0049,6.0049,0,0,0-3.3975-.81,5.7657,5.7657,0,0,0-3.3546.8167l1.8728,3.9894Z" transform="translate(-2.3041 -1.5981)"/></svg>