<svg id="Layer_1" data-name="Layer 1" xmlns="http://www.w3.org/2000/svg" viewBox="0 0 164.5499 196.0459"><defs><style>.cls-1{fill:#fff;}.cls-2{fill:#98002e;}</style></defs><title>SMU_Simplified_Shield-CMYK</title><path class="cls-1" d="M56.7092,6.1413l23.78.1177s3.5693.41,4.122,2.7436c0,0,2.2017-3.1606,4.9488-2.8852l23.0913.1162,2.2246,31.061L54.95,37.7507Z" transform="translate(-2.8267 -4.7907)"/><path class="cls-2" d="M165.8522,38.5705l-49.31.04L113.9919,5.1535l-.02-.3628L89.903,4.8093a5.8128,5.8128,0,0,0-4.8647,2.2,5.8334,5.8334,0,0,0-4.8721-2.1919L56.1,4.8366,53.5773,38.66,4.13,38.6994s-18.147,131.8814,80.9873,162.1372C185.32,169.3229,165.8522,38.5705,165.8522,38.5705ZM83.7155,36.7038H56.8181l1.789-29.168,21.5655-.017a3.0747,3.0747,0,0,1,3.4145,2.8159L83.7,25.9006ZM86.3947,25.9,86.49,10.364a3.1054,3.1054,0,0,1,3.4151-2.8531l21.562-.0175,1.9072,29.2485c-2.1328.0063-16.5767.0493-26.9419.05Z" transform="translate(-2.8267 -4.7907)"/><path class="cls-1" d="M159.0817,89.1726c-8.5761-2.0332-27.6259-.5157-43.9111,8.3925-15.6138,8.5469-29.16,8.8262-30.2417,8.834-1.0869-.0039-14.6328-.2637-30.26-8.7851C38.3645,88.7292,19.31,87.2429,10.739,89.29c0,0,3.22,79.6133,74.1665,105.43,0,.0469.1845.0469.1845,0C155.9909,168.79,159.0817,89.1726,159.0817,89.1726Z" transform="translate(-2.8267 -4.7907)"/><path class="cls-2" d="M110.14,168.2546c-7.94-.6445-5.7221,6.6367-5.7221,6.6367-13.5528-1.9883-17.4307,6.1777-18.3267,8.8359l.0024,3.0157-1.9668.0019-.0043-3.459c-1.1656-3.0312-5.3291-10.2636-18.1768-8.3613,0,0,2.2017-7.2871-5.7319-6.6308,0,0,4.7392-4.5-2.5469-8.8379,0,0,6.3882-1.5586,2.0356-7.6934,0,0,4.0142-.498,5.8081-5.49,0,0,2.2984,3.1914,5.8975.16,0,0-.6538,3.9239,3.77,5.7246,0,0-6.1347.8262-3.1875,6.3067-1.8008.7363-3.3525,5.9785,2.1328,6.7929,0,0-3.1919,4.3438,3.2837,7.5215,4.0991,2.0254,5.9234,3.8828,6.7129,4.9727l-.0068-7.99a8.9417,8.9417,0,1,1,1.9692.0489l.0044,8.1914c.6724-1.041,2.4155-3.0215,6.87-5.2344,6.4688-3.1894,3.2652-7.5254,3.2652-7.5254,5.49-.8242,3.9336-6.0644,2.13-6.7988,2.9385-5.4883-3.1987-6.3027-3.1987-6.3027,4.4121-1.8047,3.7608-5.7286,3.7608-5.7286,3.5991,3.0274,5.8881-.1718,5.8881-.1718,1.8106,4.9922,5.8223,5.48,5.8223,5.48-4.3369,6.1426,2.0537,7.6934,2.0537,7.6934C105.3894,163.7624,110.14,168.2546,110.14,168.2546Z" transform="translate(-2.8267 -4.7907)"/><path class="cls-2" d="M136.0759,133.9382s.6865,2.9765-1.5567,1.6074c-2.25-1.373-9.6748-5.2656-14.5771-4.8926h0c-4.9014-.3633-12.32,3.5371-14.5635,4.9141-2.2431,1.373-1.5571-1.6035-1.5571-1.6035,2.4136-15.2578-6.1118-21.4356-6.1118-21.4356s5.0434-.8261,8.3369,2.7383c0,0,.46-2.2871,1.8349-2.6094,0,0-.8173,8.7071,4.2207,6.5,5.0391-2.2031-.333-9.57-1.4775-10.3066,0,0,3.7578-.7793,6.415,1.1445,0,0,1.7393-5.18,2.8838-5.3144v-.0039h0v.0039c1.1416.1347,2.89,5.3086,2.89,5.3086,2.65-1.9258,6.414-1.1524,6.414-1.1524-1.1474.7363-6.499,8.1153-1.46,10.3086,5.041,2.1992,4.2051-6.5078,4.2051-6.5078,1.3769.32,1.8418,2.6055,1.8418,2.6055,3.291-3.57,8.3388-2.752,8.3388-2.752S133.63,118.6823,136.0759,133.9382Z" transform="translate(-2.8267 -4.7907)"/><path class="cls-2" d="M67.9011,133.9929s.6865,2.9746-1.5567,1.6074c-2.2451-1.3731-9.67-5.2637-14.5727-4.8965h0c-4.898-.3594-12.32,3.543-14.563,4.92-2.2481,1.3711-1.5591-1.6054-1.5591-1.6054,2.42-15.2618-6.105-21.4375-6.105-21.4375s5.0342-.8243,8.3365,2.74c0,0,.456-2.2891,1.8281-2.6113,0,0-.8174,8.709,4.2212,6.5039,5.041-2.2051-.3316-9.5723-1.4761-10.3086,0,0,3.7583-.7813,6.416,1.1445,0,0,1.7388-5.18,2.8833-5.3164v-.0039h0v.0039c1.1465.1367,2.8921,5.3125,2.8921,5.3125,2.6533-1.93,6.4116-1.1543,6.4116-1.1543-1.1469.7363-6.5014,8.1133-1.4555,10.3086,5.0385,2.1953,4.205-6.5078,4.205-6.5078,1.3794.3183,1.833,2.6055,1.833,2.6055,3.2979-3.5684,8.3409-2.752,8.3409-2.752S65.46,118.739,67.9011,133.9929Z" transform="translate(-2.8267 -4.7907)"/><path class="cls-1" d="M110.7712,67.4025a1.86,1.86,0,0,0-.5479-1.8007,1.9282,1.9282,0,0,0-1.7246-.5664l-2.3027-2.3028-.0029-3.2539a1.9231,1.9231,0,0,0,.8154-1.6235,1.8858,1.8858,0,0,0-.8955-1.6631,6.7062,6.7062,0,0,0-5.9878-5.6831,1.98,1.98,0,0,0-3.376-.0347l-2.8345.0025L91.5358,48.1a2.0077,2.0077,0,0,0-2.3789-2.2681,6.7015,6.7015,0,0,0-8.2534.2188,1.9061,1.9061,0,0,0-1.8769.52,1.8813,1.8813,0,0,0-.5323,1.8423L76.42,50.49l-2.936.0044a1.8963,1.8963,0,0,0-1.6812-.9258,1.8686,1.8686,0,0,0-1.7021.9722,6.7426,6.7426,0,0,0-5.833,5.6167,1.9708,1.9708,0,0,0-.085,3.4194l.002,3.1646-2.13,2.1367a1.9037,1.9037,0,0,0-1.8379.53,1.8637,1.8637,0,0,0-.5137,1.8906,6.7448,6.7448,0,0,0-.1587,8.0948,1.8653,1.8653,0,0,0,.4976,1.9575,1.9079,1.9079,0,0,0,1.8652.5249L64.2,80.1677l.0024,3.24a1.9736,1.9736,0,0,0,.09,3.4219,6.74,6.74,0,0,0,5.8559,5.6279,1.8833,1.8833,0,0,0,1.6929.9492,1.9152,1.9152,0,0,0,1.6675-.9043l3.0488-.0039,2.2129,2.2129a1.9771,1.9771,0,0,0,2.48,2.3574,6.7057,6.7057,0,0,0,8.1245-.1621,1.987,1.987,0,0,0,2.4062-2.3437l2.0772-2.0781,2.9365-.002a1.9811,1.9811,0,0,0,3.353-.0391,6.7058,6.7058,0,0,0,5.9966-5.7177,1.89,1.89,0,0,0,.8867-1.6612,1.9117,1.9117,0,0,0-.8173-1.6206l-.003-3.3344,2.02-2.0264a1.572,1.572,0,0,0,.4423.062,1.993,1.993,0,0,0,1.38-.6011,1.8873,1.8873,0,0,0,.5244-1.8559A6.7075,6.7075,0,0,0,110.7712,67.4025Zm-7.5186-3.4448.0118,14.9341L92.632,89.54l-14.8608.0118L67.1481,78.9445l-.0112-14.9824L77.6423,53.4357l15.0586-.0117Z" transform="translate(-2.8267 -4.7907)"/><rect class="cls-2" x="61.8758" y="9.8069" width="12.302" height="4.5425"/><rect class="cls-2" x="91.3458" y="9.7864" width="12.3042" height="4.5435"/><rect class="cls-2" x="61.8839" y="19.9305" width="12.3029" height="4.5493"/><rect class="cls-2" x="91.3548" y="19.9119" width="12.302" height="4.5496"/><path class="cls-2" d="M80.4841,149.9929a11.4662,11.4662,0,0,1,9.709-.01c.373-.6016,6.0107-12.8633,6.0107-12.8633s-3.5376-2.6172-10.9458-2.6113c-7.4131.0078-10.8076,2.6309-10.8076,2.6309Z" transform="translate(-2.8267 -4.7907)"/></svg>